<svg xmlns:rdf="http://www.w3.org/1999/02/22-rdf-syntax-ns#" xmlns="http://www.w3.org/2000/svg" xmlns:cc="http://creativecommons.org/ns#" xmlns:dc="http://purl.org/dc/elements/1.1/" xmlns:svg="http://www.w3.org/2000/svg" xmlns:inkscape="http://www.inkscape.org/namespaces/inkscape" xmlns:sodipodi="http://sodipodi.sourceforge.net/DTD/sodipodi-0.dtd" xmlns:ns1="http://sozi.baierouge.fr" xmlns:xlink="http://www.w3.org/1999/xlink" id="svg2" viewBox="0 0 1029.018 462.58999" version="1.1">
  <g id="g4" transform="translate(401.65 107.63)">
    <path id="path6" d="m1.7 39.7-0.85 0.5-0.85-0.5v-39.7l1.7 1v38.7z" fill="#0078d4"/>
  </g>
  <g id="g8" transform="translate(407.6 111.58)">
    <path id="path10" d="m1.7 32.8h-1.7v-32.8h1.7v32.8z" fill="#0078d4"/>
  </g>
  <g id="g12" transform="translate(402.5 147.33)">
    <path id="path14" d="m34.35 19.35v1.95l-34.35-19.85v-0.95l0.85-0.5 33.5 19.35z" fill="#0078d4"/>
  </g>
  <g id="g16" transform="translate(436.85 147.33)">
    <path id="path18" d="m33.5 0s1.7 0.95 1.7 0.95l-35.2 20.35v-1.95l33.5-19.35z" fill="#0078d4"/>
  </g>
  <g id="g20" transform="translate(436.4 143.63)">
    <path id="path22" d="m28.45 0 0.85 1.5-28.4 16.4-0.9-1.5 28.45-16.4z" fill="#0078d4"/>
  </g>
  <g id="g24" transform="translate(470.35 108.13)">
    <path id="path26" d="m0 0.5 0.85-0.5 0.85 0.5v39.65s-1.7-0.95-1.7-0.95v-38.7z" fill="#0078d4"/>
  </g>
  <g id="g28" transform="translate(436.85 87.284)">
    <path id="path30" d="m0 2v-2l34.35 19.85v1l-0.85 0.5-33.5-19.35z" fill="#0078d4"/>
  </g>
  <g id="g32" transform="translate(436.4 94.434)">
    <path id="path34" d="m0 1.45 0.9-1.45 28.4 16.4-0.85 1.45-28.45-16.4z" fill="#0078d4"/>
  </g>
  <g id="g36" transform="translate(401.65 87.284)">
    <path id="path38" d="m1.7 21.35-1.7-1 35.2-20.35v2l-33.5 19.35z" fill="#0078d4"/>
  </g>
  <g id="g40" transform="translate(471.2 87.834)">
    <path id="path42" d="m33.5 0 0.85 0.45v1l-33.5 19.35-0.85-0.5v-1l33.5-19.3z" fill="#0078d4"/>
  </g>
  <g id="g44" transform="translate(505.55 87.834)">
    <path id="path46" d="m34.35 19.3v1l-0.85 0.5-33.5-19.35v-1l0.85-0.45 33.5 19.3z" fill="#0078d4"/>
  </g>
  <g id="g48" transform="translate(504.7 48.634)">
    <path id="path50" d="m0 0.5 0.85-0.5 0.85 0.5v38.7l-0.85 0.45-0.85-0.45v-38.7z" fill="#0078d4"/>
  </g>
  <g id="g52" transform="translate(539.05 108.13)">
    <path id="path54" d="m1.7 39.2s-1.7 0.95-1.7 0.95v-39.65l0.85-0.5 0.85 0.5v38.7z" fill="#0078d4"/>
  </g>
  <g id="g56" transform="translate(545 111.58)">
    <path id="path58" d="m1.7 32.8h-1.7v-32.8h1.7v32.8z" fill="#0078d4"/>
  </g>
  <g id="g60" transform="translate(539.05 147.33)">
    <path id="path62" d="m35.2 19.35v1.95l-35.2-20.35s1.7-0.95 1.7-0.95l33.5 19.35z" fill="#0078d4"/>
  </g>
  <g id="g64" transform="translate(574.25 147.33)">
    <path id="path66" d="m33.55 0 0.85 0.5v0.95l-34.4 19.85v-1.95l33.55-19.35z" fill="#0078d4"/>
  </g>
  <g id="g68" transform="translate(573.85 143.63)">
    <path id="path70" d="m28.4 0 0.85 1.5-28.4 16.4-0.85-1.5 28.4-16.4z" fill="#0078d4"/>
  </g>
  <g id="g72" transform="translate(607.8 107.63)">
    <path id="path74" d="m0 1 1.7-1v39.7l-0.85 0.5-0.85-0.5v-38.7z" fill="#0078d4"/>
  </g>
  <g id="g76" transform="translate(574.25 87.284)">
    <path id="path78" d="m0 2v-2l35.25 20.35-1.7 1-33.55-19.35z" fill="#0078d4"/>
  </g>
  <g id="g80" transform="translate(573.85 94.434)">
    <path id="path82" d="m0 1.45 0.85-1.45 28.4 16.4-0.85 1.45-28.4-16.4z" fill="#0078d4"/>
  </g>
  <g id="g84" transform="translate(539.9 87.284)">
    <path id="path86" d="m0.85 21.35-0.85-0.5v-1l34.35-19.85v2l-33.5 19.35z" fill="#0078d4"/>
  </g>
  <g id="g88" transform="translate(351.25 158.75)" fill-rule="evenodd">
    <path id="path90" d="m14.736 5.712c-0.696-3.84-2.904-5.712-6.744-5.712-2.352 0-4.248 0.744-5.544 2.184-1.584 1.728-2.448 4.224-2.448 7.056 0 2.88 0.888 5.352 2.544 7.056 1.344 1.392 3.072 2.04 5.352 2.04 4.272 0 6.672-2.304 7.2-6.936h-2.304c-0.192 1.2-0.432 2.016-0.792 2.712-0.72 1.44-2.208 2.256-4.08 2.256-3.48 0-5.688-2.784-5.688-7.152 0-4.488 2.112-7.248 5.496-7.248 1.416 0 2.736 0.432 3.456 1.104 0.648 0.6 1.008 1.344 1.272 2.64h2.28z" fill="#0078d4"/>
  </g>
  <g id="g92" transform="translate(369.23 159.03)" fill-rule="evenodd">
    <path id="path94" d="m2.016 0h-2.016v17.496h2.016v-17.496z" fill="#0078d4"/>
  </g>
  <g id="g96" transform="translate(374.2 147.33)">
    <path id="path98" d="m0.85 18.3-0.85-1.45 27.45-16.85 0.85 0.5v0.95l-27.45 16.85z" fill="#0078d4"/>
  </g>
  <g id="g100" transform="translate(635.5 158.75)" fill-rule="evenodd">
    <path id="path102" d="m14.736 5.712c-0.696-3.84-2.904-5.712-6.744-5.712-2.352 0-4.248 0.744-5.544 2.184-1.584 1.728-2.448 4.224-2.448 7.056 0 2.88 0.888 5.352 2.544 7.056 1.344 1.392 3.072 2.04 5.352 2.04 4.272 0 6.672-2.304 7.2-6.936h-2.304c-0.192 1.2-0.432 2.016-0.792 2.712-0.72 1.44-2.208 2.256-4.08 2.256-3.48 0-5.688-2.784-5.688-7.152 0-4.488 2.112-7.248 5.496-7.248 1.416 0 2.736 0.432 3.456 1.104 0.648 0.6 1.008 1.344 1.272 2.64h2.28z" fill="#0078d4"/>
  </g>
  <g id="g104" transform="translate(653.23 159.03)" fill-rule="evenodd">
    <path id="path106" d="m2.016 0h-2.016v17.496h2.016v-17.496z" fill="#0078d4"/>
  </g>
  <g id="g108" transform="translate(608.65 147.33)">
    <path id="path110" d="m25.95 14.5-0.85 1.45-25.1-14.5v-0.95l0.85-0.5 25.1 14.5z" fill="#0078d4"/>
  </g>
  <g id="g112" transform="translate(532.5 20)" fill-rule="evenodd">
    <path id="path114" d="m14.736 5.7119c-0.696-3.8398-2.904-5.7119-6.744-5.7119-2.352 0-4.248 0.7442-5.544 2.1846-1.584 1.7275-2.448 4.2236-2.448 7.0557 0 2.8797 0.888 5.3517 2.544 7.0557 1.344 1.392 3.072 2.04 5.352 2.04 4.272 0 6.672-2.304 7.2-6.936h-2.304c-0.192 1.201-0.432 2.016-0.792 2.712-0.72 1.44-2.208 2.256-4.08 2.256-3.48 0-5.688-2.784-5.688-7.1522 0-4.4873 2.112-7.248 5.496-7.248 1.416 0 2.736 0.4326 3.456 1.1045 0.648 0.5996 1.008 1.3437 1.272 2.6396h2.28z" fill="#0078d4"/>
  </g>
  <g id="g116" transform="translate(550.23 20.288)" fill-rule="evenodd">
    <path id="path118" d="m2.016 0h-2.016v17.496h2.016v-17.496z" fill="#0078d4"/>
  </g>
  <g id="g120" transform="translate(505.55 33.284)">
    <path id="path122" d="m24.9 0 0.85 1.5-24.9 14.35-0.85-0.5 0.85-1.45 24.05-13.9z" fill="#0078d4"/>
  </g>
  <g id="g124" transform="translate(454.5 21)" fill-rule="evenodd">
    <path id="path126" d="m14.736 5.7119c-0.696-3.8398-2.904-5.7119-6.744-5.7119-2.352 0-4.248 0.7442-5.544 2.1846-1.584 1.7275-2.448 4.2236-2.448 7.0557 0 2.8797 0.888 5.3517 2.544 7.0557 1.344 1.392 3.072 2.04 5.352 2.04 4.272 0 6.672-2.304 7.2-6.936h-2.304c-0.192 1.201-0.432 2.016-0.792 2.712-0.72 1.44-2.208 2.256-4.08 2.256-3.48 0-5.688-2.784-5.688-7.1522 0-4.4873 2.112-7.248 5.496-7.248 1.416 0 2.736 0.4326 3.456 1.1045 0.648 0.5996 1.008 1.3437 1.272 2.6396h2.28z" fill="#0078d4"/>
  </g>
  <g id="g128" transform="translate(472.23 21.288)" fill-rule="evenodd">
    <path id="path130" d="m2.016 0h-2.016v17.496h2.016v-17.496z" fill="#0078d4"/>
  </g>
  <g id="g132" transform="translate(477.2 31.684)">
    <path id="path134" d="m0 1.4492 0.9-1.4492l26.6 15.5 0.85 1.449-0.85 0.5-27.5-16z" fill="#0078d4"/>
  </g>
  <g id="g136" transform="translate(498)" fill-rule="evenodd">
    <path id="path138" d="m14.736 5.7119c-0.696-3.8398-2.904-5.7119-6.744-5.7119-2.352 0-4.248 0.7442-5.544 2.1846-1.584 1.7275-2.448 4.2236-2.448 7.0557 0 2.8797 0.888 5.3517 2.544 7.0557 1.344 1.392 3.072 2.04 5.352 2.04 4.272 0 6.672-2.304 7.2-6.936h-2.304c-0.192 1.201-0.432 2.016-0.792 2.712-0.72 1.44-2.208 2.256-4.08 2.256-3.48 0-5.688-2.784-5.688-7.1522 0-4.4873 2.112-7.248 5.496-7.248 1.416 0 2.736 0.4326 3.456 1.1045 0.648 0.5996 1.008 1.3437 1.272 2.6396h2.28z" fill="#0078d4"/>
  </g>
  <g id="g140" transform="translate(515.98 .288)" fill-rule="evenodd">
    <path id="path142" d="m2.016 0h-2.016v17.496h2.016v-17.496z" fill="#0078d4"/>
  </g>
  <g id="g144" transform="translate(504.7 20.434)">
    <path id="path146" d="m0 0h1.7v26.75l-0.85 1.449-0.85-1.449v-26.75z" fill="#0078d4"/>
  </g>
  <g id="g148" stroke="#0078d4" stroke-width="1.35" fill="none" transform="translate(651.85 232.58)">
    <path id="path150" d="m107.25 61.6-107.25-61.6" fill="#0078d4"/>
  </g>
  <g id="g152" transform="translate(755.05 289.38)">
    <path id="path154" d="m16.95 12.2-12.6-12.2s0.6 3.15-0.35 4.8-4 2.65-4 2.65 16.95 4.75 16.95 4.75" fill="#0078d4"/>
  </g>
  <g id="g156" transform="translate(775.3 393.03)">
    <path id="path158" d="m1.7 39.7-0.85 0.5-0.85-0.5v-39.7l1.7 1v38.7z" fill="#0078d4"/>
  </g>
  <g id="g160" transform="translate(781.25 396.98)">
    <path id="path162" d="m1.7 32.8h-1.7v-32.8h1.7v32.8z" fill="#0078d4"/>
  </g>
  <g id="g164" transform="translate(776.15 432.73)">
    <path id="path166" d="m34.35 19.35v1.95l-34.35-19.85v-0.95l0.85-0.5 33.5 19.35z" fill="#0078d4"/>
  </g>
  <g id="g168" transform="translate(810.5 432.73)">
    <path id="path170" d="m33.55 0s1.7 0.95 1.7 0.95l-35.25 20.35v-1.95l33.55-19.35z" fill="#0078d4"/>
  </g>
  <g id="g172" transform="translate(810.1 429.03)">
    <path id="path174" d="m28.4 0 0.85 1.5-28.4 16.4-0.85-1.5 28.4-16.4z" fill="#0078d4"/>
  </g>
  <g id="g176" transform="translate(844.05 393.53)">
    <path id="path178" d="m0 0.5 0.85-0.5 0.85 0.5v39.65s-1.7-0.95-1.7-0.95v-38.7z" fill="#0078d4"/>
  </g>
  <g id="g180" transform="translate(810.5 372.68)">
    <path id="path182" d="m0 2v-2l34.4 19.85v1l-0.85 0.5-33.55-19.35z" fill="#0078d4"/>
  </g>
  <g id="g184" transform="translate(810.1 379.83)">
    <path id="path186" d="m0 1.45 0.85-1.45 28.4 16.4-0.85 1.45-28.4-16.4z" fill="#0078d4"/>
  </g>
  <g id="g188" transform="translate(775.3 372.68)">
    <path id="path190" d="m1.7 21.35-1.7-1 35.2-20.35v2l-33.5 19.35z" fill="#0078d4"/>
  </g>
  <g id="g192" transform="translate(844.9 373.23)">
    <path id="path194" d="m33.45 0 0.85 0.45v1l-33.45 19.35-0.85-0.5v-1l33.45-19.3z" fill="#0078d4"/>
  </g>
  <g id="g196" transform="translate(879.2 373.23)">
    <path id="path198" d="m34.35 19.3v1l-0.85 0.5-33.5-19.35v-1l0.85-0.45 33.5 19.3z" fill="#0078d4"/>
  </g>
  <g id="g200" transform="translate(912.7 393.53)">
    <path id="path202" d="m1.7 39.2s-1.7 0.95-1.7 0.95v-39.65l0.85-0.5 0.85 0.5v38.7z" fill="#0078d4"/>
  </g>
  <g id="g204" transform="translate(918.65 396.98)">
    <path id="path206" d="m1.7 32.8h-1.7v-32.8h1.7v32.8z" fill="#0078d4"/>
  </g>
  <g id="g208" transform="translate(912.7 432.73)">
    <path id="path210" d="m35.25 19.35v1.95l-35.25-20.35s1.7-0.95 1.7-0.95l33.55 19.35z" fill="#0078d4"/>
  </g>
  <g id="g212" transform="translate(947.95 432.73)">
    <path id="path214" d="m33.5 0 0.85 0.5v0.95l-34.35 19.85v-1.95l33.5-19.35z" fill="#0078d4"/>
  </g>
  <g id="g216" transform="translate(947.5 429.03)">
    <path id="path218" d="m28.4 0 0.85 1.5-28.4 16.4-0.85-1.5 28.4-16.4z" fill="#0078d4"/>
  </g>
  <g id="g220" transform="translate(981.45 393.03)">
    <path id="path222" d="m0 1 1.7-1v39.7l-0.85 0.5-0.85-0.5v-38.7z" fill="#0078d4"/>
  </g>
  <g id="g224" transform="translate(947.95 372.68)">
    <path id="path226" d="m0 2v-2l35.2 20.35-1.7 1-33.5-19.35z" fill="#0078d4"/>
  </g>
  <g id="g228" transform="translate(947.5 379.83)">
    <path id="path230" d="m0 1.45 0.85-1.45 28.4 16.4-0.85 1.45-28.4-16.4z" fill="#0078d4"/>
  </g>
  <g id="g232" transform="translate(913.55 372.68)">
    <path id="path234" d="m0.85 21.35-0.85-0.5v-1l34.4-19.85v2l-33.55 19.35z" fill="#0078d4"/>
  </g>
  <g id="g236" transform="translate(725 444.25)" fill-rule="evenodd">
    <path id="path238" d="m14.736 5.712c-0.696-3.84-2.904-5.712-6.744-5.712-2.352 0-4.248 0.744-5.544 2.184-1.584 1.728-2.448 4.224-2.448 7.056 0 2.88 0.888 5.352 2.544 7.056 1.344 1.392 3.072 2.04 5.352 2.04 4.272 0 6.672-2.304 7.2-6.936h-2.304c-0.192 1.2-0.432 2.016-0.792 2.712-0.72 1.44-2.208 2.256-4.08 2.256-3.48 0-5.688-2.784-5.688-7.152 0-4.488 2.112-7.248 5.496-7.248 1.416 0 2.736 0.432 3.456 1.104 0.648 0.6 1.008 1.344 1.272 2.64h2.28z" fill="#0078d4"/>
  </g>
  <g id="g240" transform="translate(742.73 444.53)" fill-rule="evenodd">
    <path id="path242" d="m2.016 0h-2.016v17.496h2.016v-17.496z" fill="#0078d4"/>
  </g>
  <g id="g244" transform="translate(747.85 432.73)">
    <path id="path246" d="m0.9 18.3-0.9-1.45 27.45-16.85 0.85 0.5v0.95l-27.4 16.85z" fill="#0078d4"/>
  </g>
  <g id="g248" transform="translate(1009.3 444.25)" fill-rule="evenodd">
    <path id="path250" d="m14.74 5.712c-0.7-3.84-2.91-5.712-6.75-5.712-2.35 0-4.24 0.744-5.54 2.184-1.58 1.728-2.45 4.224-2.45 7.056 0 2.88 0.89 5.352 2.55 7.056 1.34 1.392 3.07 2.04 5.35 2.04 4.27 0 6.67-2.304 7.2-6.936h-2.31c-0.19 1.2-0.43 2.016-0.79 2.712-0.72 1.44-2.21 2.256-4.08 2.256-3.48 0-5.69-2.784-5.69-7.152 0-4.488 2.12-7.248 5.5-7.248 1.42 0 2.74 0.432 3.46 1.104 0.64 0.6 1 1.344 1.27 2.64h2.28z" fill="#0078d4"/>
  </g>
  <g id="g252" transform="translate(1027 444.53)" fill-rule="evenodd">
    <path id="path254" d="m2.02 0h-2.02v17.496h2.02v-17.496z" fill="#0078d4"/>
  </g>
  <g id="g256" transform="translate(982.3 432.73)">
    <path id="path258" d="m26 14.5-0.85 1.45-25.15-14.5v-0.95l0.85-0.5 25.15 14.5z" fill="#0078d4"/>
  </g>
  <g id="g260" transform="translate(906 305.25)" fill-rule="evenodd">
    <path id="path262" d="m14.736 5.712c-0.696-3.84-2.904-5.712-6.744-5.712-2.352 0-4.248 0.744-5.544 2.184-1.584 1.728-2.448 4.224-2.448 7.056 0 2.88 0.888 5.352 2.544 7.056 1.344 1.392 3.072 2.04 5.352 2.04 4.272 0 6.672-2.304 7.2-6.936h-2.304c-0.192 1.2-0.432 2.016-0.792 2.712-0.72 1.44-2.208 2.256-4.08 2.256-3.48 0-5.688-2.784-5.688-7.152 0-4.488 2.112-7.248 5.496-7.248 1.416 0 2.736 0.432 3.456 1.104 0.648 0.6 1.008 1.344 1.272 2.64h2.28z" fill="#0078d4"/>
  </g>
  <g id="g264" transform="translate(923.98 305.53)" fill-rule="evenodd">
    <path id="path266" d="m2.016 0h-2.016v17.496h2.016v-17.496z" fill="#0078d4"/>
  </g>
  <g id="g268" transform="translate(879.2 318.68)">
    <path id="path270" d="m24.95 0 0.85 1.5-24.95 14.35-0.85-0.5 0.85-1.45 24.1-13.9z" fill="#0078d4"/>
  </g>
  <g id="g272" transform="translate(828 306.25)" fill-rule="evenodd">
    <path id="path274" d="m14.736 5.712c-0.696-3.84-2.904-5.712-6.744-5.712-2.352 0-4.248 0.744-5.544 2.184-1.584 1.728-2.448 4.224-2.448 7.056 0 2.88 0.888 5.352 2.544 7.056 1.344 1.392 3.072 2.04 5.352 2.04 4.272 0 6.672-2.304 7.2-6.936h-2.304c-0.192 1.2-0.432 2.016-0.792 2.712-0.72 1.44-2.208 2.256-4.08 2.256-3.48 0-5.688-2.784-5.688-7.152 0-4.488 2.112-7.248 5.496-7.248 1.416 0 2.736 0.432 3.456 1.104 0.648 0.6 1.008 1.344 1.272 2.64h2.28z" fill="#0078d4"/>
  </g>
  <g id="g276" transform="translate(845.98 306.53)" fill-rule="evenodd">
    <path id="path278" d="m2.016 0h-2.016v17.496h2.016v-17.496z" fill="#0078d4"/>
  </g>
  <g id="g280" transform="translate(850.9 317.08)">
    <path id="path282" d="m0 1.45 0.85-1.45 26.6 15.5 0.85 1.45-0.85 0.5-27.45-16z" fill="#0078d4"/>
  </g>
  <g id="g284" transform="translate(697.34 185.28)" fill-rule="evenodd">
    <path id="path286" d="m11.232 9.528v7.968h2.232v-17.496h-2.232v7.56h-9v-7.56h-2.232v17.496h2.256v-7.968h8.976z" fill="#0078d4"/>
  </g>
  <g id="g288" transform="translate(713.21 194.52)" fill-rule="evenodd">
    <path id="path290" d="m8.496 11.196h-6.714c0.162-1.044 0.738-1.71 2.304-2.628l1.8-0.972c1.782-0.972 2.7-2.286 2.7-3.852 0-1.062-0.432-2.052-1.188-2.736-0.756-0.683-1.692-1.008-2.898-1.008-1.62 0-2.826 0.576-3.528 1.656-0.45 0.684-0.648 1.476-0.684 2.772h1.584c0.054-0.864 0.162-1.386 0.378-1.8 0.414-0.774 1.242-1.242 2.196-1.242 1.44 0 2.52 1.026 2.52 2.394 0 1.008-0.594 1.872-1.728 2.52l-1.656 0.936c-2.664 1.512-3.438 2.718-3.582 5.526h8.496v-1.566z" fill="#0078d4"/>
  </g>
  <g id="g292" transform="translate(872.59 285.53)" fill-rule="evenodd">
    <path id="path294" d="m11.232 9.528v7.968h2.232v-17.496h-2.232v7.56h-9v-7.56h-2.232v17.496h2.256v-7.968h8.976z" fill="#0078d4"/>
  </g>
  <g id="g296" transform="translate(878.35 305.23)">
    <path id="path298" d="m0.1 0h1.7l-0.1 27.35-0.85 1.45-0.85-1.45 0.1-27.35z" fill="#0078d4"/>
  </g>
  <g id="g300" transform="translate(878.35 334.03)">
    <path id="path302" d="m1.7 39.2-0.85 0.45-0.85-0.45v-38.7l0.85-0.5 0.85 0.5v38.7z" fill="#0078d4"/>
  </g>
  <g id="g304" stroke="#0078d4" stroke-width="1.7" fill="none" transform="translate(686.35 212.88)">
    <path id="path306" d="m72.35 48.85c-12.35 11.5-32.15 13.75-46.8 5.35-19-10.9-25.55-35.2-14.65-54.2"/>
  </g>
  <g id="g308" transform="translate(754.95 252.43)">
    <path id="path310" d="m11.15 0-11.15 8.5s2.55-0.1 3.75 0.8c1.2 0.95 1.65 3.5 1.65 3.5l5.75-12.8" fill="#0078d4"/>
  </g>
  <g id="g312" transform="translate(760.59 221.53)" fill-rule="evenodd">
    <path id="path314" d="m11.232 9.528v7.968h2.232v-17.496h-2.232v7.56h-9v-7.56h-2.232v17.496h2.256v-7.968h8.976z" fill="#0078d4"/>
  </g>
  <g id="g316" transform="translate(777.25 221.25)" fill-rule="evenodd">
    <path id="path318" d="m14.736 5.712c-0.696-3.84-2.904-5.712-6.744-5.712-2.352 0-4.248 0.744-5.544 2.184-1.584 1.728-2.448 4.224-2.448 7.056 0 2.88 0.888 5.352 2.544 7.056 1.344 1.392 3.072 2.04 5.352 2.04 4.272 0 6.672-2.304 7.2-6.936h-2.304c-0.192 1.2-0.432 2.016-0.792 2.712-0.72 1.44-2.208 2.256-4.08 2.256-3.48 0-5.688-2.784-5.688-7.152 0-4.488 2.112-7.248 5.496-7.248 1.416 0 2.736 0.432 3.456 1.104 0.648 0.6 1.008 1.344 1.272 2.64h2.28z" fill="#0078d4"/>
  </g>
  <g id="g320" transform="translate(794.98 221.53)" fill-rule="evenodd">
    <path id="path322" d="m2.016 0h-2.016v17.496h2.016v-17.496z" fill="#0078d4"/>
  </g>
  <g id="g324" stroke="#0078d4" stroke-width="1.35" fill="none" transform="translate(252.2 232.38)">
    <path id="path326" d="m0 61.8 107.15-61.8" fill="#0078d4"/>
  </g>
  <g id="g328" transform="translate(239.35 289.33)">
    <path id="path330" d="m0 12.25s16.95-4.75 16.95-4.75-3.1-1.05-4.05-2.7c-0.95-1.6-0.3-4.8-0.3-4.8l-12.6 12.25" fill="#0078d4"/>
  </g>
  <g id="g332" transform="translate(50.298 393.03)">
    <path id="path334" d="m1.7002 39.7-0.8506 0.5-0.8496-0.5v-39.7l1.7002 1v38.7z" fill="#0078d4"/>
  </g>
  <g id="g336" transform="translate(56.248 396.98)">
    <path id="path338" d="m1.6992 32.8h-1.6992v-32.8h1.6992v32.8z" fill="#0078d4"/>
  </g>
  <g id="g340" transform="translate(51.148 432.73)">
    <path id="path342" d="m34.35 19.35v1.95l-34.35-19.85v-0.95l0.8506-0.5 33.499 19.35z" fill="#0078d4"/>
  </g>
  <g id="g344" transform="translate(85.498 432.73)">
    <path id="path346" d="m33.55 0s1.7 0.95 1.7 0.95l-35.25 20.35v-1.95l33.55-19.35z" fill="#0078d4"/>
  </g>
  <g id="g348" transform="translate(85.098 429.03)">
    <path id="path350" d="m28.4 0 0.85 1.5-28.4 16.4-0.85-1.5 28.4-16.4z" fill="#0078d4"/>
  </g>
  <g id="g352" transform="translate(119.05 393.53)">
    <path id="path354" d="m0 0.5 0.85-0.5 0.85 0.5v39.65s-1.7-0.95-1.7-0.95v-38.7z" fill="#0078d4"/>
  </g>
  <g id="g356" transform="translate(85.498 372.68)">
    <path id="path358" d="m0 2v-2l34.4 19.85v1l-0.85 0.5-33.55-19.35z" fill="#0078d4"/>
  </g>
  <g id="g360" transform="translate(85.098 379.83)">
    <path id="path362" d="m0 1.45 0.85-1.45 28.4 16.4-0.85 1.45-28.4-16.4z" fill="#0078d4"/>
  </g>
  <g id="g364" transform="translate(50.298 372.68)">
    <path id="path366" d="m1.7002 21.35-1.7002-1 35.2-20.35v2l-33.5 19.35z" fill="#0078d4"/>
  </g>
  <g id="g368" transform="translate(119.9 372.73)">
    <path id="path370" d="m34.3 0v1.95l-33.45 19.35-0.85-0.5v-1l34.3-19.8z" fill="#0078d4"/>
  </g>
  <g id="g372" transform="translate(154.2 372.73)">
    <path id="path374" d="m34.35 19.8v1l-0.85 0.5-33.5-19.35v-1.95l34.35 19.8z" fill="#0078d4"/>
  </g>
  <g id="g376" transform="translate(150.4 332.33)">
    <path id="path378" d="m0 0h1.7v43.1h-1.7v-43.1z" fill="#0078d4"/>
  </g>
  <g id="g380" transform="translate(156.35 332.33)">
    <path id="path382" d="m0 0h1.7v43.1h-1.7v-43.1z" fill="#0078d4"/>
  </g>
  <g id="g384" transform="translate(187.7 393.53)">
    <path id="path386" d="m1.7 39.2s-1.7 0.95-1.7 0.95v-39.65l0.85-0.5 0.85 0.5v38.7z" fill="#0078d4"/>
  </g>
  <g id="g388" transform="translate(193.65 396.98)">
    <path id="path390" d="m1.7 32.8h-1.7v-32.8h1.7v32.8z" fill="#0078d4"/>
  </g>
  <g id="g392" transform="translate(187.7 432.73)">
    <path id="path394" d="m35.25 19.35v1.95l-35.25-20.35s1.7-0.95 1.7-0.95l33.55 19.35z" fill="#0078d4"/>
  </g>
  <g id="g396" transform="translate(222.95 432.73)">
    <path id="path398" d="m33.5 0 0.85 0.5v0.95l-34.35 19.85v-1.95l33.5-19.35z" fill="#0078d4"/>
  </g>
  <g id="g400" transform="translate(222.5 429.03)">
    <path id="path402" d="m28.4 0 0.85 1.5-28.4 16.4-0.85-1.5 28.4-16.4z" fill="#0078d4"/>
  </g>
  <g id="g404" transform="translate(256.45 393.03)">
    <path id="path406" d="m0 1 1.7-1v39.7l-0.85 0.5-0.85-0.5v-38.7z" fill="#0078d4"/>
  </g>
  <g id="g408" transform="translate(222.95 372.68)">
    <path id="path410" d="m0 2v-2l35.2 20.35-1.7 1-33.5-19.35z" fill="#0078d4"/>
  </g>
  <g id="g412" transform="translate(222.5 379.83)">
    <path id="path414" d="m0 1.45 0.85-1.45 28.4 16.4-0.85 1.45-28.4-16.4z" fill="#0078d4"/>
  </g>
  <g id="g416" transform="translate(188.55 372.68)">
    <path id="path418" d="m0.85 21.35-0.85-0.5v-1l34.4-19.85v2l-33.55 19.35z" fill="#0078d4"/>
  </g>
  <g id="g420" transform="translate(0 444.25)" fill-rule="evenodd">
    <path id="path422" d="m14.735 5.712c-0.695-3.84-2.903-5.712-6.7437-5.712-2.3516 0-4.2471 0.744-5.544 2.184-1.584 1.728-2.4473 4.224-2.4473 7.056 0 2.88 0.8877 5.352 2.544 7.056 1.3437 1.392 3.0713 2.04 5.3516 2.04 4.2724 0 6.6714-2.304 7.2004-6.936h-2.304c-0.192 1.2-0.433 2.016-0.792 2.712-0.721 1.44-2.208 2.256-4.08 2.256-3.4805 0-5.6885-2.784-5.6885-7.152 0-4.488 2.1123-7.248 5.4961-7.248 1.416 0 2.7364 0.432 3.4564 1.104 0.648 0.6 1.008 1.344 1.272 2.64h2.279z" fill="#0078d4"/>
  </g>
  <g id="g424" transform="translate(17.73 444.53)" fill-rule="evenodd">
    <path id="path426" d="m2.0166 0h-2.0166v17.496h2.0166v-17.496z" fill="#0078d4"/>
  </g>
  <g id="g428" transform="translate(22.848 432.73)">
    <path id="path430" d="m0.9004 18.3-0.9004-1.45 27.45-16.85 0.85 0.5v0.95l-27.4 16.85z" fill="#0078d4"/>
  </g>
  <g id="g432" transform="translate(284.25 444.25)" fill-rule="evenodd">
    <path id="path434" d="m14.736 5.712c-0.696-3.84-2.904-5.712-6.744-5.712-2.352 0-4.248 0.744-5.544 2.184-1.584 1.728-2.448 4.224-2.448 7.056 0 2.88 0.888 5.352 2.544 7.056 1.344 1.392 3.072 2.04 5.352 2.04 4.272 0 6.672-2.304 7.2-6.936h-2.304c-0.192 1.2-0.432 2.016-0.792 2.712-0.72 1.44-2.208 2.256-4.08 2.256-3.48 0-5.688-2.784-5.688-7.152 0-4.488 2.112-7.248 5.496-7.248 1.416 0 2.736 0.432 3.456 1.104 0.648 0.6 1.008 1.344 1.272 2.64h2.28z" fill="#0078d4"/>
  </g>
  <g id="g436" transform="translate(301.98 444.53)" fill-rule="evenodd">
    <path id="path438" d="m2.016 0h-2.016v17.496h2.016v-17.496z" fill="#0078d4"/>
  </g>
  <g id="g440" transform="translate(257.3 432.73)">
    <path id="path442" d="m26 14.5-0.85 1.45-25.15-14.5v-0.95l0.85-0.5 25.15 14.5z" fill="#0078d4"/>
  </g>
  <g id="g444" transform="translate(181 305.25)" fill-rule="evenodd">
    <path id="path446" d="m14.736 5.712c-0.696-3.84-2.904-5.712-6.744-5.712-2.352 0-4.248 0.744-5.544 2.184-1.584 1.728-2.448 4.224-2.448 7.056 0 2.88 0.888 5.352 2.544 7.056 1.344 1.392 3.072 2.04 5.352 2.04 4.272 0 6.672-2.304 7.2-6.936h-2.304c-0.192 1.2-0.432 2.016-0.792 2.712-0.72 1.44-2.208 2.256-4.08 2.256-3.48 0-5.688-2.784-5.688-7.152 0-4.488 2.112-7.248 5.496-7.248 1.416 0 2.736 0.432 3.456 1.104 0.648 0.6 1.008 1.344 1.272 2.64h2.28z" fill="#0078d4"/>
  </g>
  <g id="g448" transform="translate(198.98 305.53)" fill-rule="evenodd">
    <path id="path450" d="m2.016 0h-2.016v17.496h2.016v-17.496z" fill="#0078d4"/>
  </g>
  <g id="g452" transform="translate(154.2 318.68)">
    <path id="path454" d="m24.95 0 0.85 1.5-25.8 14.85v-1.95l24.95-14.4z" fill="#0078d4"/>
  </g>
  <g id="g456" transform="translate(103 306.25)" fill-rule="evenodd">
    <path id="path458" d="m14.736 5.712c-0.696-3.84-2.904-5.712-6.744-5.712-2.352 0-4.248 0.744-5.544 2.184-1.584 1.728-2.448 4.224-2.448 7.056 0 2.88 0.888 5.352 2.544 7.056 1.344 1.392 3.072 2.04 5.352 2.04 4.272 0 6.672-2.304 7.2-6.936h-2.304c-0.192 1.2-0.432 2.016-0.792 2.712-0.72 1.44-2.208 2.256-4.08 2.256-3.48 0-5.688-2.784-5.688-7.152 0-4.488 2.112-7.248 5.496-7.248 1.416 0 2.736 0.432 3.456 1.104 0.648 0.6 1.008 1.344 1.272 2.64h2.28z" fill="#0078d4"/>
  </g>
  <g id="g460" transform="translate(120.98 306.53)" fill-rule="evenodd">
    <path id="path462" d="m2.016 0h-2.016v17.496h2.016v-17.496z" fill="#0078d4"/>
  </g>
  <g id="g464" transform="translate(125.9 317.08)">
    <path id="path466" d="m0 1.45 0.85-1.45 27.45 16v1.95l-28.3-16.5z" fill="#0078d4"/>
  </g>
  <g id="g468" transform="translate(247.8 242.71)" fill-rule="evenodd">
    <path id="path470" d="m0 0v1.512h10.09v-1.512h-10.09z" fill="#0078d4"/>
  </g>
  <g id="g472" transform="translate(265.84 234.78)" fill-rule="evenodd">
    <path id="path474" d="m11.232 9.528v7.968h2.232v-17.496h-2.232v7.56h-9v-7.56h-2.232v17.496h2.256v-7.968h8.976z" fill="#0078d4"/>
  </g>
  <g id="g476" transform="translate(282.25 234.5)" fill-rule="evenodd">
    <path id="path478" d="m14.736 5.712c-0.696-3.84-2.904-5.712-6.744-5.712-2.352 0-4.248 0.744-5.544 2.184-1.584 1.728-2.448 4.224-2.448 7.056 0 2.88 0.888 5.352 2.544 7.056 1.344 1.392 3.072 2.04 5.352 2.04 4.272 0 6.672-2.304 7.2-6.936h-2.304c-0.192 1.2-0.432 2.016-0.792 2.712-0.72 1.44-2.208 2.256-4.08 2.256-3.48 0-5.688-2.784-5.688-7.152 0-4.488 2.112-7.248 5.496-7.248 1.416 0 2.736 0.432 3.456 1.104 0.648 0.6 1.008 1.344 1.272 2.64h2.28z" fill="#0078d4"/>
  </g>
  <g id="g480" transform="translate(299.98 234.78)" fill-rule="evenodd">
    <path id="path482" d="m2.016 0h-2.016v17.496h2.016v-17.496z" fill="#0078d4"/>
  </g>
  <metadata fill="#0078d4">
    <rdf:RDF fill="#0078d4">
      <cc:Work fill="#0078d4">
        <dc:format fill="#0078d4">image/svg+xml</dc:format>
        <dc:type rdf:resource="http://purl.org/dc/dcmitype/StillImage" fill="#0078d4"/>
        <cc:license rdf:resource="http://creativecommons.org/licenses/publicdomain/" fill="#0078d4"/>
        <dc:publisher fill="#0078d4">
          <cc:Agent rdf:about="http://openclipart.org/" fill="#0078d4">
            <dc:title fill="#0078d4">Openclipart</dc:title>
          </cc:Agent>
        </dc:publisher>
        <dc:title fill="#0078d4">DDT To DDD And DDE</dc:title>
        <dc:date fill="#0078d4">2013-08-28T20:07:32</dc:date>
        <dc:description fill="#0078d4">Public Domain Source http://en.wikipedia.org/wiki/DDT </dc:description>
        <dc:source fill="#0078d4">https://openclipart.org/detail/182433/ddt-to-ddd-and-dde-by-Magirly-182433</dc:source>
        <dc:creator fill="#0078d4">
          <cc:Agent fill="#0078d4">
            <dc:title fill="#0078d4">Magirly</dc:title>
          </cc:Agent>
        </dc:creator>
        <dc:subject fill="#0078d4">
          <rdf:Bag fill="#0078d4">
            <rdf:li fill="#0078d4">DDD</rdf:li>
            <rdf:li fill="#0078d4">DDE</rdf:li>
            <rdf:li fill="#0078d4">DDT</rdf:li>
            <rdf:li fill="#0078d4">chemistry</rdf:li>
            <rdf:li fill="#0078d4">upload2openclipart</rdf:li>
          </rdf:Bag>
        </dc:subject>
      </cc:Work>
      <cc:License rdf:about="http://creativecommons.org/licenses/publicdomain/" fill="#0078d4">
        <cc:permits rdf:resource="http://creativecommons.org/ns#Reproduction" fill="#0078d4"/>
        <cc:permits rdf:resource="http://creativecommons.org/ns#Distribution" fill="#0078d4"/>
        <cc:permits rdf:resource="http://creativecommons.org/ns#DerivativeWorks" fill="#0078d4"/>
      </cc:License>
    </rdf:RDF>
  </metadata>
</svg>